<?xml version="1.0" encoding="UTF-8" standalone="no"?>
<!DOCTYPE svg PUBLIC "-//W3C//DTD SVG 1.1//EN"
 "http://www.w3.org/Graphics/SVG/1.1/DTD/svg11.dtd">
<!-- Generated by graphviz version 12.2.1 (20241206.2353)
 -->
<!-- Title: dependency&#45;cruiser output Pages: 1 -->
<svg width="575pt" height="240pt"
 viewBox="0.00 0.00 574.75 240.00" xmlns="http://www.w3.org/2000/svg" xmlns:xlink="http://www.w3.org/1999/xlink">
<g id="graph0" class="graph" transform="scale(1 1) rotate(0) translate(4 236)">
<title>dependency&#45;cruiser output</title>
<polygon fill="white" stroke="none" points="-4,4 -4,-236 570.75,-236 570.75,4 -4,4"/>
<g id="clust1" class="cluster">
<title>cluster_src</title>
<path fill="#ffffff" stroke="black" stroke-width="2" d="M20,-8C20,-8 546.75,-8 546.75,-8 552.75,-8 558.75,-14 558.75,-20 558.75,-20 558.75,-212 558.75,-212 558.75,-218 552.75,-224 546.75,-224 546.75,-224 20,-224 20,-224 14,-224 8,-218 8,-212 8,-212 8,-20 8,-20 8,-14 14,-8 20,-8"/>
<text text-anchor="middle" x="283.38" y="-211.45" font-family="Helvetica,sans-Serif" font-weight="bold" font-size="9.00">src</text>
</g>
<g id="clust2" class="cluster">
<title>cluster_src/components</title>
<path fill="#ffffff" stroke="black" stroke-width="2" d="M101.5,-16C101.5,-16 241.5,-16 241.5,-16 247.5,-16 253.5,-22 253.5,-28 253.5,-28 253.5,-157 253.5,-157 253.5,-163 247.5,-169 241.5,-169 241.5,-169 101.5,-169 101.5,-169 95.5,-169 89.5,-163 89.5,-157 89.5,-157 89.5,-28 89.5,-28 89.5,-22 95.5,-16 101.5,-16"/>
<text text-anchor="middle" x="171.5" y="-156.45" font-family="Helvetica,sans-Serif" font-weight="bold" font-size="9.00">components</text>
</g>
<g id="clust3" class="cluster">
<title>cluster_src/components/routes</title>
<path fill="#ffffff" stroke="black" stroke-width="2" d="M171.5,-52C171.5,-52 233.5,-52 233.5,-52 239.5,-52 245.5,-58 245.5,-64 245.5,-64 245.5,-130 245.5,-130 245.5,-136 239.5,-142 233.5,-142 233.5,-142 171.5,-142 171.5,-142 165.5,-142 159.5,-136 159.5,-130 159.5,-130 159.5,-64 159.5,-64 159.5,-58 165.5,-52 171.5,-52"/>
<text text-anchor="middle" x="202.5" y="-129.45" font-family="Helvetica,sans-Serif" font-weight="bold" font-size="9.00">routes</text>
</g>
<g id="clust4" class="cluster">
<title>cluster_src/components/routes/auth</title>
<path fill="#ffffff" stroke="black" stroke-width="2" d="M179.5,-60C179.5,-60 225.5,-60 225.5,-60 231.5,-60 237.5,-66 237.5,-72 237.5,-72 237.5,-103 237.5,-103 237.5,-109 231.5,-115 225.5,-115 225.5,-115 179.5,-115 179.5,-115 173.5,-115 167.5,-109 167.5,-103 167.5,-103 167.5,-72 167.5,-72 167.5,-66 173.5,-60 179.5,-60"/>
<text text-anchor="middle" x="202.5" y="-102.45" font-family="Helvetica,sans-Serif" font-weight="bold" font-size="9.00">auth</text>
</g>
<g id="clust5" class="cluster">
<title>cluster_src/core</title>
<path fill="#ffffff" stroke="black" stroke-width="2" d="M455,-28C455,-28 538.75,-28 538.75,-28 544.75,-28 550.75,-34 550.75,-40 550.75,-40 550.75,-133 550.75,-133 550.75,-139 544.75,-145 538.75,-145 538.75,-145 455,-145 455,-145 449,-145 443,-139 443,-133 443,-133 443,-40 443,-40 443,-34 449,-28 455,-28"/>
<text text-anchor="middle" x="496.88" y="-132.45" font-family="Helvetica,sans-Serif" font-weight="bold" font-size="9.00">core</text>
</g>
<g id="clust6" class="cluster">
<title>cluster_src/utilities</title>
<path fill="#ffffff" stroke="black" stroke-width="2" d="M273.5,-60C273.5,-60 423,-60 423,-60 429,-60 435,-66 435,-72 435,-72 435,-134 435,-134 435,-140 429,-146 423,-146 423,-146 273.5,-146 273.5,-146 267.5,-146 261.5,-140 261.5,-134 261.5,-134 261.5,-72 261.5,-72 261.5,-66 267.5,-60 273.5,-60"/>
<text text-anchor="middle" x="348.25" y="-133.45" font-family="Helvetica,sans-Serif" font-weight="bold" font-size="9.00">utilities</text>
</g>
<!-- src/components/App.tsx -->
<g id="node1" class="node">
<title>src/components/App.tsx</title>
<g id="a_node1"><a xlink:href="src/components/App.tsx" xlink:title="App.tsx">
<path fill="#bbfeff" stroke="black" d="M145.08,-87.62C145.08,-87.62 103.92,-87.62 103.92,-87.62 100.71,-87.62 97.5,-84.42 97.5,-81.21 97.5,-81.21 97.5,-74.79 97.5,-74.79 97.5,-71.58 100.71,-68.38 103.92,-68.38 103.92,-68.38 145.08,-68.38 145.08,-68.38 148.29,-68.38 151.5,-71.58 151.5,-74.79 151.5,-74.79 151.5,-81.21 151.5,-81.21 151.5,-84.42 148.29,-87.62 145.08,-87.62"/>
<text text-anchor="start" x="109.12" y="-75.08" font-family="Helvetica,sans-Serif" font-size="9.00">App.tsx</text>
</a>
</g>
</g>
<!-- src/components/Home.tsx -->
<g id="node2" class="node">
<title>src/components/Home.tsx</title>
<g id="a_node2"><a xlink:href="src/components/Home.tsx" xlink:title="Home.tsx">
<path fill="#bbfeff" stroke="black" d="M223.58,-43.62C223.58,-43.62 181.42,-43.62 181.42,-43.62 178.21,-43.62 175,-40.42 175,-37.21 175,-37.21 175,-30.79 175,-30.79 175,-27.58 178.21,-24.38 181.42,-24.38 181.42,-24.38 223.58,-24.38 223.58,-24.38 226.79,-24.38 230,-27.58 230,-30.79 230,-30.79 230,-37.21 230,-37.21 230,-40.42 226.79,-43.62 223.58,-43.62"/>
<text text-anchor="start" x="183" y="-31.07" font-family="Helvetica,sans-Serif" font-size="9.00">Home.tsx</text>
</a>
</g>
</g>
<!-- src/components/App.tsx&#45;&gt;src/components/Home.tsx -->
<g id="edge1" class="edge">
<title>src/components/App.tsx&#45;&gt;src/components/Home.tsx</title>
<path fill="none" stroke="#000000" stroke-width="2" stroke-opacity="0.200000" d="M141.31,-68C147,-64.46 153.5,-60.49 159.5,-57 164.4,-54.15 169.68,-51.18 174.78,-48.36"/>
<polygon fill="#000000" fill-opacity="0.200000" stroke="#000000" stroke-width="2" stroke-opacity="0.200000" points="175.66,-50.27 179.91,-45.55 173.64,-46.59 175.66,-50.27"/>
</g>
<!-- src/components/routes/auth/Auth.tsx -->
<g id="node3" class="node">
<title>src/components/routes/auth/Auth.tsx</title>
<g id="a_node3"><a xlink:href="src/components/routes/auth/Auth.tsx" xlink:title="Auth.tsx">
<path fill="#bbfeff" stroke="black" d="M223.08,-87.62C223.08,-87.62 181.92,-87.62 181.92,-87.62 178.71,-87.62 175.5,-84.42 175.5,-81.21 175.5,-81.21 175.5,-74.79 175.5,-74.79 175.5,-71.58 178.71,-68.38 181.92,-68.38 181.92,-68.38 223.08,-68.38 223.08,-68.38 226.29,-68.38 229.5,-71.58 229.5,-74.79 229.5,-74.79 229.5,-81.21 229.5,-81.21 229.5,-84.42 226.29,-87.62 223.08,-87.62"/>
<text text-anchor="start" x="185.62" y="-75.08" font-family="Helvetica,sans-Serif" font-size="9.00">Auth.tsx</text>
</a>
</g>
</g>
<!-- src/components/App.tsx&#45;&gt;src/components/routes/auth/Auth.tsx -->
<g id="edge2" class="edge">
<title>src/components/App.tsx&#45;&gt;src/components/routes/auth/Auth.tsx</title>
<path fill="none" stroke="#000000" stroke-width="2" stroke-opacity="0.200000" d="M151.65,-78C156.38,-78 161.37,-78 166.3,-78"/>
<polygon fill="#000000" fill-opacity="0.200000" stroke="#000000" stroke-width="2" stroke-opacity="0.200000" points="166.01,-80.1 172.01,-78 166.01,-75.9 166.01,-80.1"/>
</g>
<!-- src/core/generated&#45;client.ts -->
<g id="node4" class="node">
<title>src/core/generated&#45;client.ts</title>
<g id="a_node4"><a xlink:href="src/core/generated-client.ts" xlink:title="generated&#45;client.ts">
<path fill="#ddfeff" stroke="black" d="M536.33,-55.62C536.33,-55.62 457.42,-55.62 457.42,-55.62 454.21,-55.62 451,-52.42 451,-49.21 451,-49.21 451,-42.79 451,-42.79 451,-39.58 454.21,-36.38 457.42,-36.38 457.42,-36.38 536.33,-36.38 536.33,-36.38 539.54,-36.38 542.75,-39.58 542.75,-42.79 542.75,-42.79 542.75,-49.21 542.75,-49.21 542.75,-52.42 539.54,-55.62 536.33,-55.62"/>
<text text-anchor="start" x="459" y="-43.08" font-family="Helvetica,sans-Serif" font-size="9.00">generated&#45;client.ts</text>
</a>
</g>
</g>
<!-- src/components/routes/auth/Auth.tsx&#45;&gt;src/core/generated&#45;client.ts -->
<g id="edge3" class="edge">
<title>src/components/routes/auth/Auth.tsx&#45;&gt;src/core/generated&#45;client.ts</title>
<path fill="none" stroke="#000000" stroke-opacity="0.200000" d="M229.79,-72.98C237.7,-70.86 246.21,-67.95 253.5,-64 257.66,-61.75 257.12,-58.76 261.5,-57 320.44,-33.26 394.58,-34.37 443.5,-38.86"/>
<polygon fill="none" stroke="#000000" stroke-opacity="0.200000" points="443.15,-40.93 449.33,-39.42 443.56,-36.75 443.15,-40.93"/>
</g>
<!-- src/utilities/authApi.ts -->
<g id="node5" class="node">
<title>src/utilities/authApi.ts</title>
<g id="a_node5"><a xlink:href="src/utilities/authApi.ts" xlink:title="authApi.ts">
<path fill="#ddfeff" stroke="black" d="M324.46,-87.62C324.46,-87.62 280.04,-87.62 280.04,-87.62 276.83,-87.62 273.62,-84.42 273.62,-81.21 273.62,-81.21 273.62,-74.79 273.62,-74.79 273.62,-71.58 276.83,-68.38 280.04,-68.38 280.04,-68.38 324.46,-68.38 324.46,-68.38 327.67,-68.38 330.88,-71.58 330.88,-74.79 330.88,-74.79 330.88,-81.21 330.88,-81.21 330.88,-84.42 327.67,-87.62 324.46,-87.62"/>
<text text-anchor="start" x="281.62" y="-75.08" font-family="Helvetica,sans-Serif" font-size="9.00">authApi.ts</text>
</a>
</g>
</g>
<!-- src/components/routes/auth/Auth.tsx&#45;&gt;src/utilities/authApi.ts -->
<g id="edge4" class="edge">
<title>src/components/routes/auth/Auth.tsx&#45;&gt;src/utilities/authApi.ts</title>
<path fill="none" stroke="#000000" stroke-width="2" stroke-opacity="0.200000" d="M229.95,-78C240.57,-78 252.99,-78 264.46,-78"/>
<polygon fill="#000000" fill-opacity="0.200000" stroke="#000000" stroke-width="2" stroke-opacity="0.200000" points="264.38,-80.1 270.38,-78 264.38,-75.9 264.38,-80.1"/>
</g>
<!-- src/utilities/libraryApi.ts -->
<g id="node6" class="node">
<title>src/utilities/libraryApi.ts</title>
<g id="a_node6"><a xlink:href="src/utilities/libraryApi.ts" xlink:title="libraryApi.ts">
<path fill="#ddfeff" stroke="black" d="M328.58,-118.62C328.58,-118.62 275.92,-118.62 275.92,-118.62 272.71,-118.62 269.5,-115.42 269.5,-112.21 269.5,-112.21 269.5,-105.79 269.5,-105.79 269.5,-102.58 272.71,-99.38 275.92,-99.38 275.92,-99.38 328.58,-99.38 328.58,-99.38 331.79,-99.38 335,-102.58 335,-105.79 335,-105.79 335,-112.21 335,-112.21 335,-115.42 331.79,-118.62 328.58,-118.62"/>
<text text-anchor="start" x="277.5" y="-106.08" font-family="Helvetica,sans-Serif" font-size="9.00">libraryApi.ts</text>
</a>
</g>
</g>
<!-- src/components/routes/auth/Auth.tsx&#45;&gt;src/utilities/libraryApi.ts -->
<g id="edge5" class="edge">
<title>src/components/routes/auth/Auth.tsx&#45;&gt;src/utilities/libraryApi.ts</title>
<path fill="none" stroke="#000000" stroke-width="2" stroke-opacity="0.200000" d="M229.95,-86.39C239.59,-89.45 250.71,-92.97 261.26,-96.32"/>
<polygon fill="#000000" fill-opacity="0.200000" stroke="#000000" stroke-width="2" stroke-opacity="0.200000" points="260.32,-98.22 266.67,-98.03 261.59,-94.22 260.32,-98.22"/>
</g>
<!-- src/utilities/authApi.ts&#45;&gt;src/core/generated&#45;client.ts -->
<g id="edge9" class="edge">
<title>src/utilities/authApi.ts&#45;&gt;src/core/generated&#45;client.ts</title>
<path fill="none" stroke="#000000" stroke-width="2" stroke-opacity="0.200000" d="M331.26,-73.35C360.24,-68.53 406.22,-60.89 442.22,-54.91"/>
<polygon fill="#000000" fill-opacity="0.200000" stroke="#000000" stroke-width="2" stroke-opacity="0.200000" points="442.12,-57.06 447.69,-54 441.43,-52.92 442.12,-57.06"/>
</g>
<!-- src/core/baseUrl.ts -->
<g id="node7" class="node">
<title>src/core/baseUrl.ts</title>
<g id="a_node7"><a xlink:href="src/core/baseUrl.ts" xlink:title="baseUrl.ts">
<path fill="#ddfeff" stroke="black" d="M518.71,-86.62C518.71,-86.62 475.04,-86.62 475.04,-86.62 471.83,-86.62 468.62,-83.42 468.62,-80.21 468.62,-80.21 468.62,-73.79 468.62,-73.79 468.62,-70.58 471.83,-67.38 475.04,-67.38 475.04,-67.38 518.71,-67.38 518.71,-67.38 521.92,-67.38 525.12,-70.58 525.12,-73.79 525.12,-73.79 525.12,-80.21 525.12,-80.21 525.12,-83.42 521.92,-86.62 518.71,-86.62"/>
<text text-anchor="start" x="476.62" y="-74.08" font-family="Helvetica,sans-Serif" font-size="9.00">baseUrl.ts</text>
</a>
</g>
</g>
<!-- src/utilities/authApi.ts&#45;&gt;src/core/baseUrl.ts -->
<g id="edge8" class="edge">
<title>src/utilities/authApi.ts&#45;&gt;src/core/baseUrl.ts</title>
<path fill="none" stroke="#000000" stroke-width="2" stroke-opacity="0.200000" d="M331.26,-77.85C365.02,-77.68 421.86,-77.38 459.12,-77.19"/>
<polygon fill="#000000" fill-opacity="0.200000" stroke="#000000" stroke-width="2" stroke-opacity="0.200000" points="459.13,-79.29 465.12,-77.16 459.11,-75.09 459.13,-79.29"/>
</g>
<!-- src/utilities/customFetch.ts -->
<g id="node11" class="node">
<title>src/utilities/customFetch.ts</title>
<g id="a_node11"><a xlink:href="src/utilities/customFetch.ts" xlink:title="customFetch.ts">
<path fill="#ddfeff" stroke="black" d="M420.58,-118.62C420.58,-118.62 354.42,-118.62 354.42,-118.62 351.21,-118.62 348,-115.42 348,-112.21 348,-112.21 348,-105.79 348,-105.79 348,-102.58 351.21,-99.38 354.42,-99.38 354.42,-99.38 420.58,-99.38 420.58,-99.38 423.79,-99.38 427,-102.58 427,-105.79 427,-105.79 427,-112.21 427,-112.21 427,-115.42 423.79,-118.62 420.58,-118.62"/>
<text text-anchor="start" x="356" y="-106.08" font-family="Helvetica,sans-Serif" font-size="9.00">customFetch.ts</text>
</a>
</g>
</g>
<!-- src/utilities/authApi.ts&#45;&gt;src/utilities/customFetch.ts -->
<g id="edge10" class="edge">
<title>src/utilities/authApi.ts&#45;&gt;src/utilities/customFetch.ts</title>
<path fill="none" stroke="#000000" stroke-width="2" stroke-opacity="0.200000" d="M330.05,-87.98C336.81,-90.5 344.18,-93.24 351.29,-95.89"/>
<polygon fill="#000000" fill-opacity="0.200000" stroke="#000000" stroke-width="2" stroke-opacity="0.200000" points="350.27,-97.75 356.63,-97.88 351.74,-93.82 350.27,-97.75"/>
</g>
<!-- src/utilities/libraryApi.ts&#45;&gt;src/core/generated&#45;client.ts -->
<g id="edge13" class="edge">
<title>src/utilities/libraryApi.ts&#45;&gt;src/core/generated&#45;client.ts</title>
<path fill="none" stroke="#000000" stroke-width="2" stroke-opacity="0.200000" d="M327.51,-98.96C330.14,-97.46 332.7,-95.81 335,-94 342.21,-88.35 339.99,-82.45 348,-78 382.07,-59.07 398.87,-81.62 435,-67 439.12,-65.33 439.02,-62.97 443,-61 444.15,-60.43 445.32,-59.88 446.52,-59.35"/>
<polygon fill="#000000" fill-opacity="0.200000" stroke="#000000" stroke-width="2" stroke-opacity="0.200000" points="447.02,-61.41 451.8,-57.22 445.45,-57.51 447.02,-61.41"/>
</g>
<!-- src/utilities/libraryApi.ts&#45;&gt;src/core/baseUrl.ts -->
<g id="edge12" class="edge">
<title>src/utilities/libraryApi.ts&#45;&gt;src/core/baseUrl.ts</title>
<path fill="none" stroke="#000000" stroke-width="2" stroke-opacity="0.200000" d="M328.03,-98.97C334.44,-96.7 341.41,-94.51 348,-93 385.41,-84.42 429.22,-80.41 459.4,-78.55"/>
<polygon fill="#000000" fill-opacity="0.200000" stroke="#000000" stroke-width="2" stroke-opacity="0.200000" points="459.41,-80.66 465.28,-78.22 459.17,-76.46 459.41,-80.66"/>
</g>
<!-- src/utilities/libraryApi.ts&#45;&gt;src/utilities/customFetch.ts -->
<g id="edge14" class="edge">
<title>src/utilities/libraryApi.ts&#45;&gt;src/utilities/customFetch.ts</title>
<path fill="none" stroke="#000000" stroke-width="2" stroke-opacity="0.200000" d="M335.2,-109C336.33,-109 337.48,-109 338.63,-109"/>
<polygon fill="#000000" fill-opacity="0.200000" stroke="#000000" stroke-width="2" stroke-opacity="0.200000" points="338.5,-111.1 344.5,-109 338.5,-106.9 338.5,-111.1"/>
</g>
<!-- src/core/problemdetails.ts -->
<g id="node8" class="node">
<title>src/core/problemdetails.ts</title>
<g id="a_node8"><a xlink:href="src/core/problemdetails.ts" xlink:title="problemdetails.ts">
<path fill="#ddfeff" stroke="black" d="M533.71,-117.62C533.71,-117.62 460.04,-117.62 460.04,-117.62 456.83,-117.62 453.62,-114.42 453.62,-111.21 453.62,-111.21 453.62,-104.79 453.62,-104.79 453.62,-101.58 456.83,-98.38 460.04,-98.38 460.04,-98.38 533.71,-98.38 533.71,-98.38 536.92,-98.38 540.12,-101.58 540.12,-104.79 540.12,-104.79 540.12,-111.21 540.12,-111.21 540.12,-114.42 536.92,-117.62 533.71,-117.62"/>
<text text-anchor="start" x="461.62" y="-105.08" font-family="Helvetica,sans-Serif" font-size="9.00">problemdetails.ts</text>
</a>
</g>
</g>
<!-- src/index.css -->
<g id="node9" class="node">
<title>src/index.css</title>
<g id="a_node9"><a xlink:href="src/index.css" xlink:title="index.css">
<path fill="#ffffcc" stroke="black" d="M145.08,-196.62C145.08,-196.62 103.92,-196.62 103.92,-196.62 100.71,-196.62 97.5,-193.42 97.5,-190.21 97.5,-190.21 97.5,-183.79 97.5,-183.79 97.5,-180.58 100.71,-177.38 103.92,-177.38 103.92,-177.38 145.08,-177.38 145.08,-177.38 148.29,-177.38 151.5,-180.58 151.5,-183.79 151.5,-183.79 151.5,-190.21 151.5,-190.21 151.5,-193.42 148.29,-196.62 145.08,-196.62"/>
<text text-anchor="start" x="105.75" y="-184.07" font-family="Helvetica,sans-Serif" font-size="9.00">index.css</text>
</a>
</g>
</g>
<!-- src/main.tsx -->
<g id="node10" class="node">
<title>src/main.tsx</title>
<g id="a_node10"><a xlink:href="src/main.tsx" xlink:title="main.tsx">
<path fill="#bbfeff" stroke="black" d="M69.33,-106.62C69.33,-106.62 28.17,-106.62 28.17,-106.62 24.96,-106.62 21.75,-103.42 21.75,-100.21 21.75,-100.21 21.75,-93.79 21.75,-93.79 21.75,-90.58 24.96,-87.38 28.17,-87.38 28.17,-87.38 69.33,-87.38 69.33,-87.38 72.54,-87.38 75.75,-90.58 75.75,-93.79 75.75,-93.79 75.75,-100.21 75.75,-100.21 75.75,-103.42 72.54,-106.62 69.33,-106.62"/>
<text text-anchor="start" x="31.5" y="-94.08" font-family="Helvetica,sans-Serif" font-size="9.00">main.tsx</text>
</a>
</g>
</g>
<!-- src/main.tsx&#45;&gt;src/components/App.tsx -->
<g id="edge7" class="edge">
<title>src/main.tsx&#45;&gt;src/components/App.tsx</title>
<path fill="none" stroke="#000000" stroke-width="2" stroke-opacity="0.200000" d="M75.96,-90.25C80.09,-89.18 84.41,-88.07 88.7,-86.96"/>
<polygon fill="#000000" fill-opacity="0.200000" stroke="#000000" stroke-width="2" stroke-opacity="0.200000" points="89.16,-89.02 94.44,-85.49 88.11,-84.95 89.16,-89.02"/>
</g>
<!-- src/main.tsx&#45;&gt;src/index.css -->
<g id="edge6" class="edge">
<title>src/main.tsx&#45;&gt;src/index.css</title>
<path fill="none" stroke="#000000" stroke-width="2" stroke-opacity="0.200000" d="M56.36,-107.07C63.18,-117.71 73.87,-135.12 81.5,-151 85.82,-160 82.62,-164.76 89.5,-172 89.78,-172.29 90.06,-172.58 90.35,-172.86"/>
<polygon fill="#000000" fill-opacity="0.200000" stroke="#000000" stroke-width="2" stroke-opacity="0.200000" points="88.73,-174.27 94.78,-176.21 91.26,-170.92 88.73,-174.27"/>
</g>
<!-- src/utilities/customFetch.ts&#45;&gt;src/core/problemdetails.ts -->
<g id="edge11" class="edge">
<title>src/utilities/customFetch.ts&#45;&gt;src/core/problemdetails.ts</title>
<path fill="none" stroke="#000000" stroke-opacity="0.200000" d="M427.26,-108.64C433.31,-108.58 439.63,-108.52 445.88,-108.47"/>
<polygon fill="none" stroke="#000000" stroke-opacity="0.200000" points="445.67,-110.57 451.65,-108.41 445.63,-106.37 445.67,-110.57"/>
</g>
<!-- src/vite&#45;env.d.ts -->
<g id="node12" class="node">
<title>src/vite&#45;env.d.ts</title>
<g id="a_node12"><a xlink:href="src/vite-env.d.ts" xlink:title="vite&#45;env.d.ts">
<path fill="#ccffcc" stroke="black" d="M75.08,-176.62C75.08,-176.62 22.42,-176.62 22.42,-176.62 19.21,-176.62 16,-173.42 16,-170.21 16,-170.21 16,-163.79 16,-163.79 16,-160.58 19.21,-157.38 22.42,-157.38 22.42,-157.38 75.08,-157.38 75.08,-157.38 78.29,-157.38 81.5,-160.58 81.5,-163.79 81.5,-163.79 81.5,-170.21 81.5,-170.21 81.5,-173.42 78.29,-176.62 75.08,-176.62"/>
<text text-anchor="start" x="24" y="-164.07" font-family="Helvetica,sans-Serif" font-size="9.00">vite&#45;env.d.ts</text>
</a>
</g>
</g>
</g>
</svg>
